<?xml version="1.0" encoding="utf-8"?>
<!-- Generator: Adobe Illustrator 19.2.1, SVG Export Plug-In . SVG Version: 6.00 Build 0)  -->
<svg version="1.1"
	 id="svg1968" inkscape:version="0.91 r13725" sodipodi:docname="Java-Logo.svg" sodipodi:version="0.32" xmlns:cc="http://creativecommons.org/ns#" xmlns:dc="http://purl.org/dc/elements/1.1/" xmlns:inkscape="http://www.inkscape.org/namespaces/inkscape" xmlns:rdf="http://www.w3.org/1999/02/22-rdf-syntax-ns#" xmlns:sodipodi="http://sodipodi.sourceforge.net/DTD/sodipodi-0.dtd" xmlns:svg="http://www.w3.org/2000/svg"
	 xmlns="http://www.w3.org/2000/svg" xmlns:xlink="http://www.w3.org/1999/xlink" x="0px" y="0px" viewBox="0 0 242.8 316"
	 style="enable-background:new 0 0 242.8 316;" xml:space="preserve">
<style type="text/css">
	.st0{fill:#FFFFFF;}
</style>
<sodipodi:namedview  bordercolor="#666666" borderopacity="1.0" height="129.89mm" id="base" inkscape:current-layer="_198302696" inkscape:cx="259.5939" inkscape:cy="213.51197" inkscape:document-units="px" inkscape:pageopacity="0.0" inkscape:pageshadow="2" inkscape:window-height="719" inkscape:window-maximized="1" inkscape:window-width="1366" inkscape:window-x="0" inkscape:window-y="1" inkscape:zoom="1.4" pagecolor="#ffffff" showgrid="false" units="mm" width="68.51mm">
	</sodipodi:namedview>
<g id="layer1" transform="translate(3824.556,782.8939)" inkscape:groupmode="layer" inkscape:label="Ebene 1">
	<g id="Ebene_x0020_1" transform="translate(-3826.724,-785.8793)">
		<g id="_198302696">
			<path id="_227268128" class="st0" d="M82.6,243.3c0,0-11.9,7.3,8.3,9.3c24.4,3.1,37.4,2.6,64.4-2.6c0,0,7.3,4.7,17.1,8.3
				C111.7,284.3,34.9,256.8,82.6,243.3L82.6,243.3z M74.8,209.6c0,0-13,9.9,7.3,11.9c26.5,2.6,47.2,3.1,83.1-4.2
				c0,0,4.7,5.2,12.5,7.8C104.4,247,22.4,227.2,74.8,209.6L74.8,209.6z M218.1,268.8c0,0,8.8,7.3-9.9,13
				c-34.8,10.4-145.9,13.5-177,0c-10.9-4.7,9.9-11.4,16.6-12.5c6.7-1.6,10.4-1.6,10.4-1.6c-11.9-8.3-79.4,17.1-34.3,24.4
				C148,312.4,250.3,283.3,218.1,268.8L218.1,268.8z M88.3,174.3c0,0-56.6,13.5-20.2,18.2c15.6,2.1,46.2,1.6,74.7-0.5
				c23.4-2.1,46.7-6.2,46.7-6.2s-8.3,3.6-14,7.3C117.9,208,7.4,201.3,39,185.7C66,172.7,88.3,174.3,88.3,174.3L88.3,174.3z
				 M189.6,230.9c58.1-30.1,31.1-59.2,12.5-55.5c-4.7,1-6.7,2.1-6.7,2.1s1.6-3.1,5.2-4.2c36.9-13,65.9,38.9-11.9,59.2
				C188.5,232.4,189,231.9,189.6,230.9L189.6,230.9z M94,312.9c56.1,3.6,141.7-2.1,143.8-28.5c0,0-4.2,10.4-46.2,18.2
				c-47.8,8.8-106.9,7.8-141.7,2.1C49.9,304.6,57.2,310.8,94,312.9L94,312.9z"/>
			<path id="_230367536" class="st0" d="M154.3,3c0,0,32.2,32.7-30.6,82c-50.4,40-11.4,62.8,0,88.8c-29.6-26.5-50.9-49.8-36.3-71.6
				C108.6,69.9,167.2,54.4,154.3,3L154.3,3z M137.6,152c15.1,17.1-4.2,32.7-4.2,32.7s38.4-19.7,20.8-44.1
				c-16.1-23.4-28.5-34.8,38.9-73.7C193.2,66.8,86.8,93.3,137.6,152L137.6,152z"/>
		</g>
	</g>
</g>
</svg>
